<svg width="155" height="60" viewBox="0 0 155 60" fill="none" xmlns="http://www.w3.org/2000/svg">
<g clip-path="url(#clip0_338_62)">
<path d="M140 10H15C12.2386 10 10 12.2386 10 15V45C10 47.7614 12.2386 50 15 50H140C142.761 50 145 47.7614 145 45V15C145 12.2386 142.761 10 140 10Z" fill="black"/>
<path d="M140 10.8C141.114 10.8 142.182 11.2425 142.97 12.0302C143.758 12.8178 144.2 13.8861 144.2 15V45C144.2 46.1139 143.758 47.1822 142.97 47.9698C142.182 48.7575 141.114 49.2 140 49.2H15C13.8861 49.2 12.8178 48.7575 12.0302 47.9698C11.2425 47.1822 10.8 46.1139 10.8 45V15C10.8 13.8861 11.2425 12.8178 12.0302 12.0302C12.8178 11.2425 13.8861 10.8 15 10.8H140ZM140 10H15C13.6739 10 12.4021 10.5268 11.4645 11.4645C10.5268 12.4021 10 13.6739 10 15V45C10 46.3261 10.5268 47.5979 11.4645 48.5355C12.4021 49.4732 13.6739 50 15 50H140C141.326 50 142.598 49.4732 143.536 48.5355C144.473 47.5979 145 46.3261 145 45V15C145 13.6739 144.473 12.4021 143.536 11.4645C142.598 10.5268 141.326 10 140 10Z" fill="#A6A6A6"/>
<path d="M78.14 31.75C77.3003 31.7539 76.4806 32.0066 75.7843 32.476C75.088 32.9453 74.5464 33.6105 74.2278 34.3874C73.9092 35.1643 73.8279 36.0182 73.9941 36.8413C74.1603 37.6644 74.5667 38.4198 75.1618 39.0122C75.757 39.6046 76.5143 40.0074 77.3382 40.1697C78.162 40.3321 79.0155 40.2468 79.791 39.9245C80.5664 39.6023 81.229 39.0575 81.6951 38.3591C82.1612 37.6606 82.41 36.8397 82.41 36C82.4181 35.4379 82.3131 34.88 82.1012 34.3593C81.8892 33.8387 81.5746 33.366 81.1762 32.9695C80.7778 32.573 80.3037 32.2606 79.7821 32.0511C79.2604 31.8416 78.702 31.7392 78.14 31.75ZM78.14 38.58C77.6236 38.6161 77.1082 38.496 76.6609 38.2354C76.2137 37.9747 75.8552 37.5855 75.632 37.1184C75.4088 36.6513 75.3314 36.1279 75.4097 35.6161C75.4879 35.1044 75.7184 34.6281 76.0709 34.249C76.4235 33.87 76.882 33.6058 77.3867 33.4908C77.8915 33.3758 78.4192 33.4152 78.9012 33.6041C79.3832 33.7929 79.7972 34.1224 80.0895 34.5497C80.3818 34.977 80.5387 35.4823 80.54 36C80.5561 36.328 80.5063 36.6559 80.3937 36.9644C80.2811 37.2729 80.1078 37.5557 79.8841 37.7962C79.6604 38.0366 79.3909 38.2299 79.0913 38.3645C78.7918 38.4991 78.4683 38.5724 78.14 38.58ZM68.83 31.75C67.9898 31.752 67.1691 32.0029 66.4715 32.4711C65.7739 32.9393 65.2308 33.6037 64.9106 34.3805C64.5905 35.1573 64.5077 36.0115 64.6729 36.8352C64.838 37.659 65.2435 38.4153 65.8383 39.0087C66.4331 39.6021 67.1904 40.0059 68.0145 40.1691C68.8387 40.3322 69.6927 40.2475 70.4687 39.9255C71.2447 39.6036 71.9079 39.0588 72.3744 38.3601C72.841 37.6614 73.09 36.8401 73.09 36C73.0981 35.4379 72.9931 34.88 72.7812 34.3593C72.5692 33.8387 72.2546 33.366 71.8562 32.9695C71.4578 32.573 70.9837 32.2606 70.4621 32.0511C69.9404 31.8416 69.382 31.7392 68.82 31.75H68.83ZM68.83 38.58C68.3133 38.6181 67.7971 38.4999 67.3486 38.2406C66.9001 37.9812 66.5401 37.5929 66.3153 37.1261C66.0906 36.6593 66.0116 36.1356 66.0887 35.6233C66.1657 35.111 66.3952 34.6338 66.7473 34.2537C67.0994 33.8736 67.5577 33.6084 68.0626 33.4924C68.5676 33.3765 69.0957 33.4153 69.5783 33.6037C70.0609 33.7921 70.4756 34.1215 70.7684 34.5489C71.0612 34.9763 71.2186 35.4819 71.22 36C71.2361 36.328 71.1863 36.6559 71.0737 36.9644C70.9611 37.2729 70.7878 37.5557 70.5641 37.7962C70.3404 38.0366 70.0709 38.2299 69.7713 38.3645C69.4718 38.4991 69.1483 38.5724 68.82 38.58H68.83ZM57.74 33.06V34.86H62.06C61.9922 35.7078 61.6398 36.5078 61.06 37.13C60.6278 37.5702 60.1082 37.9151 59.5347 38.1425C58.9612 38.3698 58.3464 38.4746 57.73 38.45C56.4569 38.45 55.236 37.9443 54.3359 37.0441C53.4357 36.1439 52.93 34.923 52.93 33.65C52.93 32.377 53.4357 31.1561 54.3359 30.2559C55.236 29.3557 56.4569 28.85 57.73 28.85C58.9478 28.8301 60.1237 29.294 61 30.14L62.27 28.87C61.6785 28.271 60.9727 27.7969 60.1946 27.4757C59.4165 27.1544 58.5818 26.9927 57.74 27C56.851 26.9654 55.9641 27.1106 55.1326 27.427C54.3011 27.7433 53.5419 28.2243 52.9007 28.841C52.2595 29.4577 51.7494 30.1976 51.401 31.0162C51.0525 31.8348 50.8729 32.7153 50.8729 33.605C50.8729 34.4947 51.0525 35.3752 51.401 36.1938C51.7494 37.0124 52.2595 37.7522 52.9007 38.369C53.5419 38.9857 54.3011 39.4667 55.1326 39.783C55.9641 40.0994 56.851 40.2446 57.74 40.21C58.5959 40.2487 59.4502 40.1036 60.2454 39.7845C61.0406 39.4654 61.7582 38.9796 62.35 38.36C63.3977 37.2089 63.957 35.6958 63.91 34.14C63.9132 33.761 63.8797 33.3825 63.81 33.01L57.74 33.06ZM103.05 34.46C102.789 33.6927 102.301 33.0228 101.651 32.5388C101.001 32.0549 100.22 31.7798 99.41 31.75C98.863 31.7489 98.3216 31.8601 97.8192 32.0765C97.3169 32.293 96.8643 32.6102 96.4894 33.0085C96.1145 33.4069 95.8252 33.8778 95.6396 34.3924C95.4539 34.9069 95.3758 35.4541 95.41 36C95.3978 36.5589 95.4984 37.1145 95.7058 37.6337C95.9132 38.1528 96.2231 38.6249 96.617 39.0216C97.0109 39.4183 97.4808 39.7315 97.9984 39.9426C98.5161 40.1536 99.071 40.2582 99.63 40.25C100.329 40.2538 101.019 40.084 101.637 39.7559C102.255 39.4278 102.781 38.9516 103.17 38.37L101.72 37.37C101.504 37.7308 101.197 38.0292 100.831 38.236C100.464 38.4429 100.051 38.5511 99.63 38.55C99.1968 38.5665 98.7687 38.4523 98.4013 38.2222C98.0339 37.9922 97.7443 37.6569 97.57 37.26L103.26 34.91L103.05 34.46ZM97.25 35.88C97.2297 35.5707 97.2714 35.2604 97.3725 34.9674C97.4736 34.6744 97.6322 34.4045 97.8389 34.1736C98.0457 33.9426 98.2964 33.7553 98.5765 33.6224C98.8566 33.4896 99.1603 33.414 99.47 33.4C99.7925 33.3787 100.114 33.4527 100.395 33.6127C100.676 33.7727 100.904 34.0117 101.05 34.3L97.25 35.88ZM92.63 40H94.5V27.5H92.63V40ZM89.57 32.7H89.5C89.2181 32.3849 88.8729 32.1329 88.4869 31.9606C88.1008 31.7882 87.6827 31.6994 87.26 31.7C86.1672 31.753 85.1366 32.2244 84.382 33.0166C83.6273 33.8087 83.2063 34.8609 83.2063 35.955C83.2063 37.0491 83.6273 38.1013 84.382 38.8934C85.1366 39.6856 86.1672 40.157 87.26 40.21C87.6837 40.2171 88.1039 40.1313 88.4909 39.9585C88.8779 39.7857 89.2224 39.5302 89.5 39.21H89.56V39.82C89.56 41.45 88.69 42.32 87.29 42.32C86.8237 42.3091 86.3712 42.1597 85.9901 41.8908C85.609 41.6219 85.3166 41.2456 85.15 40.81L83.52 41.49C83.8268 42.2364 84.3496 42.874 85.0213 43.3212C85.693 43.7685 86.483 44.0048 87.29 44C89.48 44 91.29 42.71 91.29 39.57V32H89.57V32.7ZM87.43 38.58C86.7849 38.5231 86.1846 38.2267 85.7472 37.7492C85.3099 37.2716 85.0674 36.6475 85.0674 36C85.0674 35.3524 85.3099 34.7284 85.7472 34.2508C86.1846 33.7733 86.7849 33.4768 87.43 33.42C87.7498 33.4364 88.0631 33.5167 88.3514 33.656C88.6398 33.7954 88.8973 33.9911 89.1088 34.2315C89.3204 34.4719 89.4817 34.7523 89.5832 35.056C89.6847 35.3597 89.7244 35.6807 89.7 36C89.7273 36.3207 89.6892 36.6436 89.5881 36.9491C89.4871 37.2547 89.3251 37.5366 89.1119 37.7778C88.8988 38.019 88.639 38.2144 88.3482 38.3523C88.0574 38.4902 87.7416 38.5676 87.42 38.58H87.43ZM111.81 27.5H107.34V40H109.21V35.26H111.82C112.353 35.2983 112.888 35.2264 113.392 35.0487C113.896 34.8711 114.358 34.5915 114.749 34.2275C115.14 33.8635 115.452 33.4227 115.665 32.9328C115.879 32.4429 115.989 31.9143 115.989 31.38C115.989 30.8457 115.879 30.3171 115.665 29.8272C115.452 29.3373 115.14 28.8965 114.749 28.5325C114.358 28.1685 113.896 27.8889 113.392 27.7113C112.888 27.5336 112.353 27.4617 111.82 27.5H111.81ZM111.81 33.5H109.2V29.24H111.85C112.419 29.24 112.964 29.466 113.367 29.8683C113.769 30.2705 113.995 30.8161 113.995 31.385C113.995 31.9539 113.769 32.4995 113.367 32.9017C112.964 33.304 112.419 33.53 111.85 33.53L111.81 33.5ZM123.34 31.7C122.659 31.6593 121.981 31.8184 121.39 32.1577C120.798 32.497 120.319 33.0018 120.01 33.61L121.67 34.3C121.834 33.9983 122.081 33.7508 122.383 33.5874C122.685 33.4241 123.028 33.352 123.37 33.38C123.607 33.3523 123.848 33.3721 124.078 33.4383C124.307 33.5045 124.521 33.6158 124.708 33.7657C124.894 33.9156 125.048 34.101 125.162 34.3112C125.276 34.5214 125.346 34.7522 125.37 34.99V35.12C124.769 34.802 124.1 34.6371 123.42 34.64C121.63 34.64 119.82 35.64 119.82 37.45C119.838 37.8359 119.933 38.2144 120.099 38.563C120.265 38.9117 120.5 39.2234 120.789 39.4798C121.078 39.7362 121.416 39.932 121.782 40.0557C122.148 40.1794 122.535 40.2285 122.92 40.2C123.391 40.2338 123.862 40.1402 124.285 39.9291C124.707 39.718 125.064 39.397 125.32 39H125.38V40H127.18V35.19C127.18 33 125.52 31.73 123.39 31.73L123.34 31.7ZM123.11 38.55C122.5 38.55 121.65 38.24 121.65 37.49C121.65 36.49 122.71 36.16 123.65 36.16C124.244 36.1453 124.831 36.2904 125.35 36.58C125.287 37.1214 125.031 37.622 124.629 37.9895C124.227 38.357 123.705 38.5667 123.16 38.58L123.11 38.55ZM133.74 32L131.6 37.42H131.54L129.32 32H127.32L130.65 39.58L128.75 43.79H130.7L135.82 32H133.74ZM116.93 40H118.8V27.5H116.93V40Z" fill="white"/>
<path d="M20.44 17.54C20.1141 17.9311 19.9496 18.4318 19.98 18.94V41.06C19.9496 41.5682 20.1141 42.0689 20.44 42.46L20.51 42.53L32.9 30.15V29.86L20.51 17.47L20.44 17.54Z" fill="url(#paint0_linear_338_62)"/>
<path d="M37 34.28L32.9 30.15V29.86L37 25.72L37.09 25.77L42 28.56C43.4 29.35 43.4 30.65 42 31.45L37.11 34.23L37 34.28Z" fill="url(#paint1_linear_338_62)"/>
<path d="M37.12 34.22L32.9 30L20.44 42.46C20.7254 42.7109 21.0894 42.8541 21.4692 42.8651C21.849 42.876 22.2207 42.754 22.52 42.52L37.13 34.22" fill="url(#paint2_linear_338_62)"/>
<path d="M37.12 25.78L22.51 17.48C22.2106 17.246 21.839 17.1239 21.4592 17.1349C21.0794 17.1458 20.7154 17.2891 20.43 17.54L32.9 30L37.12 25.78Z" fill="url(#paint3_linear_338_62)"/>
<path opacity="0.2" d="M37 34.13L22.51 42.38C22.2213 42.5959 21.8705 42.7125 21.51 42.7125C21.1495 42.7125 20.7987 42.5959 20.51 42.38L20.44 42.45L20.51 42.52C20.7981 42.7374 21.1491 42.855 21.51 42.855C21.8709 42.855 22.2219 42.7374 22.51 42.52L37.12 34.22L37 34.13Z" fill="black"/>
<path opacity="0.12" d="M20.44 42.32C20.1141 41.9289 19.9496 41.4282 19.98 40.92V41.07C19.9496 41.5782 20.1141 42.0789 20.44 42.47L20.51 42.4L20.44 42.32ZM42 31.3L37 34.13L37.09 34.22L42 31.44C42.2786 31.3091 42.5178 31.1071 42.6933 30.8543C42.8689 30.6014 42.9747 30.3068 43 30C42.9438 30.2787 42.8244 30.5408 42.6511 30.7662C42.4777 30.9915 42.255 31.1742 42 31.3Z" fill="black"/>
<path opacity="0.25" d="M22.51 17.62L42 28.7C42.2549 28.8258 42.4776 29.0085 42.651 29.2338C42.8244 29.4592 42.9437 29.7213 43 30C42.9747 29.6932 42.8689 29.3986 42.6933 29.1457C42.5177 28.8929 42.2786 28.6909 42 28.56L22.51 17.48C21.11 16.69 19.97 17.35 19.97 18.95V19.1C20 17.49 21.12 16.83 22.51 17.62Z" fill="white"/>
<path d="M51.34 23V17H53.18C53.5854 16.9817 53.9902 17.0458 54.3701 17.1885C54.75 17.3311 55.0969 17.5494 55.39 17.83C55.6667 18.1172 55.8821 18.4576 56.0231 18.8307C56.1641 19.2037 56.2277 19.6016 56.21 20C56.2264 20.3991 56.1612 20.7974 56.0185 21.1705C55.8758 21.5435 55.6585 21.8836 55.38 22.17C55.0869 22.4506 54.74 22.6688 54.3601 22.8115C53.9802 22.9542 53.5754 23.0183 53.17 23H51.34ZM52.11 22.26H53.17C53.4712 22.2757 53.7725 22.2306 54.056 22.1276C54.3394 22.0245 54.5993 21.8655 54.82 21.66C55.0295 21.4395 55.1917 21.1785 55.2966 20.893C55.4015 20.6076 55.4469 20.3037 55.43 20C55.4557 19.6976 55.4152 19.3932 55.3113 19.1081C55.2075 18.8229 55.0428 18.5638 54.8286 18.3487C54.6145 18.1336 54.3561 17.9678 54.0714 17.8626C53.7867 17.7575 53.4825 17.7157 53.18 17.74H52.11V22.26ZM57.3 23V17H58.07V23H57.3ZM61.13 23.13C60.6693 23.1217 60.2223 22.9716 59.85 22.7C59.4359 22.417 59.1432 21.9887 59.03 21.5L59.73 21.22C59.8102 21.5427 59.9884 21.8326 60.24 22.05C60.4804 22.2695 60.7945 22.3908 61.12 22.39C61.4275 22.4002 61.7297 22.3088 61.98 22.13C62.0955 22.0497 62.189 21.9417 62.2519 21.8159C62.3148 21.6901 62.3451 21.5505 62.34 21.41C62.3464 21.2622 62.317 21.115 62.2543 20.9809C62.1916 20.8469 62.0975 20.7299 61.98 20.64C61.6348 20.4075 61.2528 20.235 60.85 20.13C60.4019 20.0098 59.9877 19.7873 59.64 19.48C59.507 19.3502 59.4019 19.1945 59.3314 19.0225C59.2609 18.8505 59.2264 18.6658 59.23 18.48C59.2304 18.2678 59.276 18.058 59.364 17.8649C59.452 17.6717 59.5802 17.4996 59.74 17.36C60.1035 17.0321 60.581 16.8598 61.07 16.88C61.5148 16.8598 61.9529 16.9941 62.31 17.26C62.5953 17.4682 62.8113 17.7574 62.93 18.09L62.23 18.38C62.1688 18.1672 62.0386 17.9808 61.86 17.85C61.6372 17.6897 61.3696 17.6034 61.095 17.6034C60.8205 17.6034 60.5529 17.6897 60.33 17.85C60.2323 17.9208 60.1531 18.0141 60.0991 18.122C60.0451 18.23 60.018 18.3493 60.02 18.47C60.0196 18.5812 60.0457 18.6909 60.0961 18.79C60.1466 18.8892 60.2199 18.9749 60.31 19.04C60.5679 19.2241 60.8554 19.3628 61.16 19.45C61.4116 19.5297 61.6587 19.6232 61.9 19.73C62.1119 19.8289 62.313 19.9496 62.5 20.09C62.6979 20.231 62.8563 20.4203 62.96 20.64C63.0698 20.8816 63.1244 21.1446 63.12 21.41C63.125 21.6808 63.0631 21.9487 62.94 22.19C62.8278 22.4074 62.6627 22.593 62.46 22.73C62.2635 22.8649 62.0477 22.9694 61.82 23.04C61.5956 23.1034 61.3632 23.1337 61.13 23.13ZM65 23H64.23V17H66.23C66.7193 16.9937 67.1921 17.1764 67.55 17.51C67.727 17.6729 67.8683 17.8708 67.9649 18.0911C68.0615 18.3115 68.1114 18.5494 68.1114 18.79C68.1114 19.0306 68.0615 19.2685 67.9649 19.4888C67.8683 19.7091 67.727 19.907 67.55 20.07C67.1927 20.4045 66.7195 20.5873 66.23 20.58H65V23ZM65 19.83H66.3C66.4463 19.8354 66.5919 19.8087 66.7267 19.7516C66.8615 19.6946 66.9821 19.6087 67.08 19.5C67.1768 19.4067 67.2538 19.2949 67.3064 19.1712C67.3589 19.0475 67.3861 18.9144 67.3861 18.78C67.3861 18.6456 67.3589 18.5125 67.3064 18.3888C67.2538 18.2651 67.1768 18.1533 67.08 18.06C66.9821 17.9513 66.8615 17.8654 66.7267 17.8083C66.5919 17.7513 66.4463 17.7246 66.3 17.73H65V19.83ZM74 22.22C73.4154 22.8013 72.6245 23.1277 71.8 23.1277C70.9756 23.1277 70.1846 22.8013 69.6 22.22C69.0318 21.6185 68.7152 20.8224 68.7152 19.995C68.7152 19.1676 69.0318 18.3715 69.6 17.77C69.8882 17.4797 70.2309 17.2494 70.6085 17.0922C70.9861 16.935 71.391 16.854 71.8 16.854C72.209 16.854 72.614 16.935 72.9916 17.0922C73.3691 17.2494 73.7119 17.4797 74 17.77C74.5705 18.3703 74.8886 19.1668 74.8886 19.995C74.8886 20.8231 74.5705 21.6197 74 22.22ZM70.17 21.72C70.603 22.1511 71.1891 22.3932 71.8 22.3932C72.411 22.3932 72.9971 22.1511 73.43 21.72C73.8573 21.249 74.0939 20.6359 74.0939 20C74.0939 19.3641 73.8573 18.751 73.43 18.28C72.9971 17.8489 72.411 17.6068 71.8 17.6068C71.1891 17.6068 70.603 17.8489 70.17 18.28C69.7428 18.751 69.5061 19.3641 69.5061 20C69.5061 20.6359 69.7428 21.249 70.17 21.72ZM76 23V17H76.94L79.86 21.67V17H80.63V23H79.83L76.78 18.11V23H76ZM82 23V17H82.77V23H82ZM82.72 16.53H82.05L82.49 15.46H83.33L82.72 16.53ZM85.64 23L83.53 17H84.38L86 21.87L87.77 17H88.62L86.44 23H85.64ZM93 17.74H90.26V19.64H92.72V20.36H90.26V22.26H93V23H89.5V17H93V17.74ZM94.2 23V17H95V22.26H97.6V23H94.2ZM100.55 23V17H101.49L104.41 21.67V17H105.18V23H104.38L101.33 18.11V23H100.55ZM111.46 22.22C110.875 22.8013 110.084 23.1277 109.26 23.1277C108.436 23.1277 107.645 22.8013 107.06 22.22C106.492 21.6185 106.175 20.8224 106.175 19.995C106.175 19.1676 106.492 18.3715 107.06 17.77C107.348 17.4797 107.691 17.2494 108.068 17.0922C108.446 16.935 108.851 16.854 109.26 16.854C109.669 16.854 110.074 16.935 110.452 17.0922C110.829 17.2494 111.172 17.4797 111.46 17.77C112.031 18.3703 112.349 19.1668 112.349 19.995C112.349 20.8231 112.031 21.6197 111.46 22.22ZM107.63 21.72C108.063 22.1511 108.649 22.3932 109.26 22.3932C109.871 22.3932 110.457 22.1511 110.89 21.72C111.317 21.249 111.554 20.6359 111.554 20C111.554 19.3641 111.317 18.751 110.89 18.28C110.457 17.8489 109.871 17.6068 109.26 17.6068C108.649 17.6068 108.063 17.8489 107.63 18.28C107.203 18.751 106.966 19.3641 106.966 20C106.966 20.6359 107.203 21.249 107.63 21.72Z" fill="white" stroke="white" stroke-width="0.2" stroke-miterlimit="10"/>
</g>
<defs>
<linearGradient id="paint0_linear_338_62" x1="31.8" y1="18.71" x2="15.02" y2="35.49" gradientUnits="userSpaceOnUse">
<stop stop-color="#00A0FF"/>
<stop offset="0.01" stop-color="#00A1FF"/>
<stop offset="0.26" stop-color="#00BEFF"/>
<stop offset="0.51" stop-color="#00D2FF"/>
<stop offset="0.76" stop-color="#00DFFF"/>
<stop offset="1" stop-color="#00E3FF"/>
</linearGradient>
<linearGradient id="paint1_linear_338_62" x1="43.83" y1="30" x2="19.64" y2="30" gradientUnits="userSpaceOnUse">
<stop stop-color="#FFE000"/>
<stop offset="0.41" stop-color="#FFBD00"/>
<stop offset="0.78" stop-color="#FFA500"/>
<stop offset="1" stop-color="#FF9C00"/>
</linearGradient>
<linearGradient id="paint2_linear_338_62" x1="34.83" y1="32.3" x2="12.07" y2="55.05" gradientUnits="userSpaceOnUse">
<stop stop-color="#FF3A44"/>
<stop offset="1" stop-color="#C31162"/>
</linearGradient>
<linearGradient id="paint3_linear_338_62" x1="17.3" y1="10.18" x2="27.46" y2="20.34" gradientUnits="userSpaceOnUse">
<stop stop-color="#32A071"/>
<stop offset="0.07" stop-color="#2DA771"/>
<stop offset="0.48" stop-color="#15CF74"/>
<stop offset="0.8" stop-color="#06E775"/>
<stop offset="1" stop-color="#00F076"/>
</linearGradient>
<clipPath id="clip0_338_62">
<rect width="155" height="60" fill="white"/>
</clipPath>
</defs>
</svg>
