<svg width="157" height="85" viewBox="0 0 157 85" fill="none" xmlns="http://www.w3.org/2000/svg">
<path d="M11 83C10.5776 71.287 13.103 59.6555 18.3446 49.1723C23.5862 38.6891 31.3762 29.6899 41 23" stroke="#4CAF50" stroke-width="20"/>
<path d="M41 23C52.1029 16.0866 64.9207 12.4222 78 12.4222C91.0793 12.4222 103.897 16.0866 115 23" stroke="#FFC107" stroke-width="20"/>
<path d="M115 23C124.808 29.5746 132.794 38.5236 138.214 49.0142C143.635 59.5048 146.313 71.1961 146 83" stroke="#F44336" stroke-width="20"/>
<path d="M76 78L46 48" stroke="#333333" stroke-width="4" stroke-linecap="round"/>
<path d="M76 84C79.3137 84 82 81.3137 82 78C82 74.6863 79.3137 72 76 72C72.6863 72 70 74.6863 70 78C70 81.3137 72.6863 84 76 84Z" fill="#333333"/>
</svg>
