<svg width="157" height="85" viewBox="0 0 157 85" fill="none" xmlns="http://www.w3.org/2000/svg">
<path d="M11 84C10.5776 72.287 13.103 60.6555 18.3446 50.1723C23.5862 39.6891 31.3762 30.6899 41 24" stroke="#4CAF50" stroke-width="20"/>
<path d="M41 24C52.1029 17.0866 64.9207 13.4222 78 13.4222C91.0793 13.4222 103.897 17.0866 115 24" stroke="#FFC107" stroke-width="20"/>
<path d="M115 24C124.808 30.5746 132.794 39.5236 138.214 50.0142C143.635 60.5048 146.313 72.1961 146 84" stroke="#F44336" stroke-width="20"/>
<path d="M76 79L116 59" stroke="#333333" stroke-width="4" stroke-linecap="round"/>
<path d="M76 85C79.3137 85 82 82.3137 82 79C82 75.6863 79.3137 73 76 73C72.6863 73 70 75.6863 70 79C70 82.3137 72.6863 85 76 85Z" fill="#333333"/>
</svg>
