<svg width="157" height="85" viewBox="0 0 157 85" fill="none" xmlns="http://www.w3.org/2000/svg">
<path d="M10.1989 83.2942C9.72535 71.5832 12.2 59.9407 17.3958 49.4347C22.5916 38.9288 30.3422 29.8956 39.9367 23.1638" stroke="#4CAF50" stroke-width="20"/>
<path d="M113.936 22.8409C123.773 29.3727 131.798 38.2868 137.264 48.7536C142.73 59.2204 145.459 70.8999 145.198 82.7051" stroke="#F44336" stroke-width="20"/>
<path d="M75.1764 78.0106L75.0019 38.011" stroke="#333333" stroke-width="4" stroke-linecap="round"/>
<path d="M75.2026 84.0105C78.5163 83.9961 81.1908 81.2981 81.1764 77.9844C81.1619 74.6707 78.4639 71.9962 75.1502 72.0106C71.8366 72.0251 69.162 74.7231 69.1765 78.0368C69.1909 81.3504 71.8889 84.025 75.2026 84.0105Z" fill="#333333"/>
<path d="M39.8894 22.7418C50.9621 15.7801 63.7637 12.0598 76.8429 12.0027C89.9221 11.9456 102.756 15.5541 113.889 22.4189" stroke="#FFC107" stroke-width="20"/>
</svg>
